<svg width="560" height="560" viewBox="0 0 560 560" fill="none" xmlns="http://www.w3.org/2000/svg">
<g clip-path="url(#clip0)">
<rect width="560" height="560" fill="white"/>
<path d="M566 -7.02405H497.324L566 41.0913V-7.02405Z" fill="#FFA2B4"/>
<path d="M71.2787 -7.02405H-7V50.7978L71.2787 -7.02405Z" fill="#FFA2B4"/>
<path d="M-7 147.342L202.161 -7.02405H68.565L-7 48.8148V147.342Z" fill="#FF9CA5"/>
<path d="M359.449 -7.02405L566 137.739V40.8825L497.637 -7.02405H359.449Z" fill="#FF9CA5"/>
<path d="M199.447 -7.02405L-7 145.358V243.99L278.665 33.0547L566 234.283V137.531L359.762 -7.02405H199.447Z" fill="#FF9695"/>
<path d="M277.517 32.0109L-7 242.007V340.638L278.665 129.703L566 330.931V234.074L277.517 32.0109Z" fill="#FF9086"/>
<path d="M277.517 128.659L-7 338.655V437.181L278.665 226.351L566 427.579V330.722L277.517 128.659Z" fill="#FF8A77"/>
<path d="M277.517 225.203L-7 435.198V533.83L278.665 322.895L566 524.123V427.371L277.517 225.203Z" fill="#FE8467"/>
<path d="M566 523.914L277.517 321.851L-7 531.847V567.124H78.7934L278.665 419.543L489.391 567.124H566V523.914Z" fill="#FE7E58"/>
<path d="M277.517 418.499L76.1842 567.124H209.675L278.665 516.191L351.412 567.124H489.704L277.517 418.499Z" fill="#FE7848"/>
<path d="M277.517 515.043L207.066 567.124H351.725L277.517 515.043Z" fill="#FE7239"/>
</g>
<defs>
<clipPath id="clip0">
<rect width="560" height="560" fill="white"/>
</clipPath>
</defs>
</svg>
